<?xml version="1.0" standalone="no"?><!DOCTYPE svg PUBLIC "-//W3C//DTD SVG 1.1//EN" "http://www.w3.org/Graphics/SVG/1.1/DTD/svg11.dtd"><svg t="1680596048122" class="icon" viewBox="0 0 1024 1024" version="1.1" xmlns="http://www.w3.org/2000/svg" p-id="6449" xmlns:xlink="http://www.w3.org/1999/xlink" width="55" height="55"><path d="M512 512m-501.76 0a501.76 501.76 0 1 0 1003.52 0 501.76 501.76 0 1 0-1003.52 0Z" fill="#8CEEF9" p-id="6450"></path><path d="M740.352 719.0528h-571.392c-23.7568 0-43.008 19.2512-43.008 43.008v70.4512C217.9072 943.3088 356.7616 1013.76 512 1013.76c99.9424 0 193.1264-29.2864 271.36-79.6672v-172.032c0-23.7568-19.2512-43.008-43.008-43.008z" fill="#C67552" p-id="6451"></path><path d="M740.352 719.0528h-78.0288c23.7568 0 43.008 19.2512 43.008 43.008v212.992c27.2384-11.4688 53.4528-25.1904 78.0288-40.96v-172.032c0-23.7568-19.2512-43.008-43.008-43.008z" fill="#AA4D2D" p-id="6452"></path><path d="M705.3312 985.4976c-2.048 0-3.8912-0.6144-5.7344-1.6384-2.8672-1.8432-4.5056-5.12-4.5056-8.6016v-212.992c0-18.0224-14.7456-32.768-32.768-32.768-5.7344 0-10.24-4.5056-10.24-10.24s4.5056-10.24 10.24-10.24h78.0288c29.2864 0 53.248 23.9616 53.248 53.248v172.032c0 3.4816-1.8432 6.7584-4.7104 8.6016-25.1904 16.1792-52.0192 30.3104-79.6672 41.7792-1.2288 0.4096-2.6624 0.8192-3.8912 0.8192z m-1.2288-256.2048c7.168 9.0112 11.264 20.48 11.264 32.768v197.4272c19.8656-9.0112 39.1168-19.456 57.5488-30.9248v-166.2976c0-18.0224-14.7456-32.768-32.768-32.768h-36.0448z m79.2576 204.8z" fill="#1C1D21" p-id="6453"></path><path d="M512 1024c-152.576 0-296.3456-67.3792-394.0352-184.9344-1.4336-1.8432-2.4576-4.096-2.4576-6.5536v-70.4512c0-29.2864 23.9616-53.248 53.248-53.248h571.392c29.2864 0 53.248 23.9616 53.248 53.248v172.032c0 3.4816-1.8432 6.7584-4.7104 8.6016-82.3296 53.248-178.176 81.3056-276.6848 81.3056zM136.192 828.8256C229.9904 939.8272 366.592 1003.52 512 1003.52c92.7744 0 182.8864-26.0096 261.12-74.9568v-166.2976c0-18.0224-14.7456-32.768-32.768-32.768h-571.392c-18.0224 0-32.768 14.7456-32.768 32.768v66.56z m647.168 105.2672z" fill="#1C1D21" p-id="6454"></path><path d="M166.912 782.5408c-5.7344 0-10.24-4.5056-10.24-10.24v-10.24c0-5.7344 4.5056-10.24 10.24-10.24s10.24 4.5056 10.24 10.24v10.24c0 5.5296-4.5056 10.24-10.24 10.24zM166.912 885.5552c-5.7344 0-10.24-4.5056-10.24-10.24v-47.3088c0-5.7344 4.5056-10.24 10.24-10.24s10.24 4.5056 10.24 10.24v47.3088c0 5.7344-4.5056 10.24-10.24 10.24z" fill="#FFA364" p-id="6455"></path><path d="M312.5248 719.0528h-118.784l29.9008-363.52c0.4096-5.3248 4.9152-9.4208 10.24-9.4208H272.384c5.3248 0 9.8304 4.096 10.24 9.4208l29.9008 363.52zM497.664 719.0528h-118.784l29.9008-363.52c0.4096-5.3248 4.9152-9.4208 10.24-9.4208h38.5024c5.3248 0 9.8304 4.096 10.24 9.4208L497.664 719.0528z" fill="#FFECE9" p-id="6456"></path><path d="M312.5248 729.2928h-118.784c-2.8672 0-5.5296-1.2288-7.5776-3.2768-1.8432-2.048-2.8672-4.9152-2.6624-7.7824l29.9008-363.52c0.8192-10.4448 9.8304-18.8416 20.48-18.8416H272.384c10.6496 0 19.456 8.192 20.48 18.8416l29.9008 363.52c0.2048 2.8672-0.8192 5.7344-2.6624 7.7824-2.048 2.048-4.7104 3.2768-7.5776 3.2768z m-107.7248-20.48h96.4608l-29.0816-352.256h-38.5024l-28.8768 352.256zM497.664 729.2928h-118.784c-2.8672 0-5.5296-1.2288-7.5776-3.2768-1.8432-2.048-2.8672-4.9152-2.6624-7.7824l29.9008-363.52c0.8192-10.4448 9.8304-18.8416 20.48-18.8416h38.5024c10.6496 0 19.456 8.192 20.48 18.8416L507.904 718.2336c0.2048 2.8672-0.8192 5.7344-2.6624 7.7824-2.048 2.048-4.7104 3.2768-7.5776 3.2768z m-107.7248-20.48h96.4608l-29.0816-352.256h-38.5024l-28.8768 352.256z" fill="#1C1D21" p-id="6457"></path><path d="M218.3168 422.0928l-6.144 73.728h81.92l-5.9392-73.728zM403.2512 422.0928l-5.9392 73.728h81.92l-6.144-73.728zM206.0288 569.5488l-5.9392 73.728h106.2912l-6.144-73.728zM391.168 569.5488l-6.144 73.728h106.2912l-5.9392-73.728z" fill="#FF3E63" p-id="6458"></path><path d="M294.0928 506.0608h-81.92c-2.8672 0-5.5296-1.2288-7.5776-3.2768-1.8432-2.048-2.8672-4.9152-2.6624-7.7824l6.144-73.728c0.4096-5.3248 4.9152-9.4208 10.24-9.4208h69.8368c5.3248 0 9.8304 4.096 10.24 9.4208l6.144 73.728c0.2048 2.8672-0.8192 5.7344-2.6624 7.7824-2.048 2.048-4.9152 3.2768-7.7824 3.2768z m-70.8608-20.48h59.8016l-4.3008-53.248h-50.9952l-4.5056 53.248zM479.232 506.0608h-81.92c-2.8672 0-5.5296-1.2288-7.5776-3.2768-1.8432-2.048-2.8672-4.9152-2.6624-7.7824l6.144-73.728c0.4096-5.3248 4.9152-9.4208 10.24-9.4208h69.632c5.3248 0 9.8304 4.096 10.24 9.4208l6.144 73.728c0.2048 2.8672-0.8192 5.7344-2.6624 7.7824-2.048 2.048-4.7104 3.2768-7.5776 3.2768z m-70.8608-20.48h59.8016l-4.3008-53.248h-50.9952l-4.5056 53.248zM306.3808 653.5168H200.0896c-2.8672 0-5.5296-1.2288-7.5776-3.2768-1.8432-2.048-2.8672-4.9152-2.6624-7.7824l6.144-73.728c0.4096-5.3248 4.9152-9.4208 10.24-9.4208h94.208c5.3248 0 9.8304 4.096 10.24 9.4208l6.144 73.728c0.2048 2.8672-0.8192 5.7344-2.6624 7.7824-2.2528 2.048-4.9152 3.2768-7.7824 3.2768z m-95.232-20.48h83.968l-4.3008-53.248h-75.3664l-4.3008 53.248zM491.3152 653.5168H385.024c-2.8672 0-5.5296-1.2288-7.5776-3.2768-1.8432-2.048-2.8672-4.9152-2.6624-7.7824l6.144-73.728c0.4096-5.3248 4.9152-9.4208 10.24-9.4208h94.208c5.3248 0 9.8304 4.096 10.24 9.4208l6.144 73.728c0.2048 2.8672-0.8192 5.7344-2.6624 7.7824-2.048 2.048-4.9152 3.2768-7.7824 3.2768z m-95.0272-20.48h83.968l-4.3008-53.248h-75.3664l-4.3008 53.248z" fill="#1C1D21" p-id="6459"></path><path d="M289.1776 869.1712h-76.3904c-5.7344 0-10.24-4.5056-10.24-10.24v-76.3904c0-5.7344 4.5056-10.24 10.24-10.24h76.3904c5.7344 0 10.24 4.5056 10.24 10.24v76.3904c0 5.7344-4.7104 10.24-10.24 10.24z" fill="#8CEEF9" p-id="6460"></path><path d="M212.5824 869.1712c-5.7344 0-10.24-4.5056-10.24-10.24v-76.3904c0-5.7344 4.5056-10.24 10.24-10.24h76.3904c5.7344 0 10.24 4.5056 10.24 10.24l-86.6304 86.6304z" fill="#FFECE9" p-id="6461"></path><path d="M442.1632 869.1712h-76.3904c-5.7344 0-10.24-4.5056-10.24-10.24v-76.3904c0-5.7344 4.5056-10.24 10.24-10.24h76.3904c5.7344 0 10.24 4.5056 10.24 10.24v76.3904c0 5.7344-4.5056 10.24-10.24 10.24z" fill="#8CEEF9" p-id="6462"></path><path d="M365.7728 869.1712c-5.7344 0-10.24-4.5056-10.24-10.24v-76.3904c0-5.7344 4.5056-10.24 10.24-10.24h76.3904c5.7344 0 10.24 4.5056 10.24 10.24l-86.6304 86.6304z" fill="#FFECE9" p-id="6463"></path><path d="M289.1776 879.4112h-76.3904c-11.264 0-20.48-9.216-20.48-20.48v-76.3904c0-11.264 9.216-20.48 20.48-20.48h76.3904c11.264 0 20.48 9.216 20.48 20.48v76.3904c0 11.264-9.216 20.48-20.48 20.48z m-76.5952-96.8704v76.3904h76.3904v-76.3904h-76.3904zM442.1632 879.4112h-76.3904c-11.264 0-20.48-9.216-20.48-20.48v-76.3904c0-11.264 9.216-20.48 20.48-20.48h76.3904c11.264 0 20.48 9.216 20.48 20.48v76.3904c0 11.264-9.216 20.48-20.48 20.48z m-76.3904-96.8704v76.3904h76.3904v-76.3904h-76.3904z" fill="#1C1D21" p-id="6464"></path><path d="M561.7664 587.5712h19.8656v-85.6064h-19.8656c-21.9136 0-39.5264 17.6128-39.5264 39.5264v6.5536c0 21.7088 17.8176 39.5264 39.5264 39.5264zM926.3104 587.5712h-19.8656v-85.6064h19.8656c21.9136 0 39.5264 17.6128 39.5264 39.5264v6.5536c0 21.7088-17.8176 39.5264-39.5264 39.5264z" fill="#FFC5B3" p-id="6465"></path><path d="M581.632 597.8112h-19.8656c-27.4432 0-49.7664-22.3232-49.7664-49.7664v-6.5536c0-27.4432 22.3232-49.7664 49.7664-49.7664h19.8656c5.7344 0 10.24 4.5056 10.24 10.24v85.6064c0 5.5296-4.5056 10.24-10.24 10.24z m-19.8656-85.6064c-16.1792 0-29.2864 13.1072-29.2864 29.2864v6.5536c0 16.1792 13.1072 29.2864 29.2864 29.2864h9.6256v-65.1264h-9.6256z" fill="#1C1D21" p-id="6466"></path><path d="M655.5648 850.7392l-63.2832 39.1168c-44.4416 27.4432-73.728 73.1136-80.896 123.904h0.8192c136.8064 0 260.7104-54.6816 351.0272-143.36l-31.9488-19.6608c-24.9856-15.5648-40.3456-42.8032-40.3456-72.2944v-7.9872c0-14.336 8.3968-27.0336 21.2992-32.9728 55.0912-25.8048 92.9792-81.7152 92.9792-146.6368v-74.9568c0-89.4976-72.4992-161.9968-161.9968-161.9968-89.4976 0-161.9968 72.4992-161.9968 161.9968v74.9568c0 64.7168 38.0928 120.6272 92.9792 146.6368 12.9024 6.144 21.2992 18.8416 21.2992 32.9728v7.9872c0.4096 29.2864-14.7456 56.7296-39.936 72.2944z" fill="#FFC5B3" p-id="6467"></path><path d="M926.3104 597.8112h-19.8656c-5.7344 0-10.24-4.5056-10.24-10.24v-85.6064c0-5.7344 4.5056-10.24 10.24-10.24h19.8656c27.4432 0 49.7664 22.3232 49.7664 49.7664v6.5536c0 27.2384-22.3232 49.7664-49.7664 49.7664z m-9.6256-20.48h9.6256c16.1792 0 29.2864-13.1072 29.2864-29.2864v-6.5536c0-16.1792-13.1072-29.2864-29.2864-29.2864h-9.6256v65.1264z" fill="#1C1D21" p-id="6468"></path><path d="M582.2464 501.9648H651.264c51.2 0 92.7744-41.5744 92.7744-92.7744l-0.6144-55.296c-84.7872 0-154.2144 65.1264-161.1776 148.0704z" fill="#AA4D2D" p-id="6469"></path><path d="M744.0384 353.8944l-0.6144 55.296c0 51.2 41.5744 92.7744 92.7744 92.7744h68.608c-7.168-82.7392-76.3904-147.8656-160.768-148.0704z" fill="#AA4D2D" p-id="6470"></path><path d="M651.264 512.2048h-69.2224c-2.8672 0-5.5296-1.2288-7.5776-3.2768s-2.8672-4.9152-2.6624-7.7824c3.6864-42.8032 23.1424-82.5344 54.6816-111.8208 31.9488-29.4912 73.3184-45.6704 116.736-45.6704 5.5296 0 10.24 4.5056 10.24 10.0352l0.6144 55.296c0.2048 56.9344-45.8752 103.2192-102.8096 103.2192z m-57.5488-20.48H651.264c45.4656 0 82.5344-37.0688 82.5344-82.5344l-0.4096-44.8512c-70.0416 4.7104-128.6144 58.1632-139.6736 127.3856z" fill="#1C1D21" p-id="6471"></path><path d="M904.6016 512.2048h-68.608c-56.7296 0-103.0144-46.2848-103.0144-103.0144l0.6144-55.5008c0-5.5296 4.7104-10.0352 10.24-10.0352 43.2128 0.2048 84.5824 16.384 116.3264 45.8752 31.5392 29.2864 50.9952 68.8128 54.4768 111.616 0.2048 2.8672-0.8192 5.7344-2.6624 7.7824s-4.5056 3.2768-7.3728 3.2768zM754.0736 364.544l-0.4096 44.8512c0 45.2608 37.0688 82.3296 82.5344 82.3296h56.9344c-11.0592-70.0416-68.1984-122.4704-139.0592-127.1808z" fill="#1C1D21" p-id="6472"></path><path d="M512 1024c-136.8064 0-265.4208-53.248-362.0864-149.9136C53.248 777.4208 0 648.8064 0 512S53.248 246.5792 149.9136 149.9136C246.5792 53.248 375.1936 0 512 0s265.4208 53.248 362.0864 149.9136C970.752 246.5792 1024 375.1936 1024 512s-53.248 265.4208-149.9136 362.0864C777.4208 970.752 648.8064 1024 512 1024z m0-1003.52C241.0496 20.48 20.48 241.0496 20.48 512s220.5696 491.52 491.52 491.52 491.52-220.5696 491.52-491.52S782.9504 20.48 512 20.48z" fill="#1C1D21" p-id="6473"></path><path d="M512 1024c-136.8064 0-265.4208-53.248-362.0864-149.9136C53.248 777.4208 0 648.8064 0 512S53.248 246.5792 149.9136 149.9136C246.5792 53.248 375.1936 0 512 0s265.4208 53.248 362.0864 149.9136C970.752 246.5792 1024 375.1936 1024 512s-53.248 265.4208-149.9136 362.0864C777.4208 970.752 648.8064 1024 512 1024z m0-1003.52C241.0496 20.48 20.48 241.0496 20.48 512s220.5696 491.52 491.52 491.52 491.52-220.5696 491.52-491.52S782.9504 20.48 512 20.48z" fill="#1C1D21" p-id="6474"></path><path d="M512 1024h-0.6144c-2.8672 0-5.9392-1.2288-7.7824-3.4816-1.8432-2.2528-2.8672-5.12-2.4576-8.192 7.7824-54.4768 38.912-102.1952 85.6064-131.2768l63.2832-39.1168c22.3232-13.7216 35.4304-37.4784 35.4304-63.6928v-7.9872c0-10.24-5.9392-19.2512-15.5648-23.7568-60.0064-28.2624-98.9184-89.4976-98.9184-155.8528v-74.9568c0-94.8224 77.2096-172.2368 172.2368-172.2368 46.08 0 89.2928 17.8176 121.6512 50.3808 32.5632 32.5632 50.3808 75.776 50.3808 121.6512v74.9568c0 66.3552-38.912 127.5904-98.9184 155.8528-9.6256 4.5056-15.5648 13.5168-15.5648 23.7568v7.9872c0 26.2144 13.312 49.9712 35.4304 63.6928l31.9488 19.6608c2.6624 1.6384 4.5056 4.5056 4.7104 7.5776 0.4096 3.072-0.8192 6.144-3.072 8.3968C773.9392 971.9808 646.7584 1024 512 1024z m231.424-659.8656c-83.5584 0-151.7568 67.9936-151.7568 151.7568v74.9568c0 58.5728 34.2016 112.4352 87.2448 137.216 16.5888 7.7824 27.2384 24.3712 27.2384 42.3936v7.9872c0 33.3824-16.9984 63.6928-45.2608 81.1008l-63.2832 39.1168c-38.0928 23.552-64.7168 61.2352-74.1376 104.8576 120.6272-2.8672 234.496-48.9472 322.9696-131.2768l-20.6848-12.6976c-28.2624-17.408-45.2608-47.7184-45.2608-81.1008v-7.9872c0-17.8176 10.6496-34.4064 27.2384-42.3936 53.0432-24.9856 87.2448-78.848 87.2448-137.216v-74.9568c0-40.5504-15.7696-78.6432-44.4416-107.3152-28.4672-28.672-66.56-44.4416-107.1104-44.4416z m-87.8592 486.6048z" fill="#1C1D21" p-id="6475"></path><path d="M512 1013.76c136.8064 0 260.7104-54.6816 351.0272-143.36l-11.6736-7.168c-33.792 11.6736-70.0416 18.2272-107.9296 18.2272s-74.1376-6.3488-107.9296-18.2272l-43.2128 26.624c-44.4416 27.4432-73.728 73.1136-80.896 123.904h0.6144z" fill="#508DEF" p-id="6476"></path><path d="M512 1024h-0.6144c-2.8672 0-5.9392-1.2288-7.7824-3.4816-1.8432-2.2528-2.8672-5.12-2.4576-8.192 7.7824-54.4768 38.912-102.1952 85.6064-131.2768l43.2128-26.624c2.6624-1.6384 5.7344-2.048 8.8064-1.024 33.5872 11.6736 68.8128 17.6128 104.6528 17.6128s71.0656-5.9392 104.6528-17.6128c2.8672-1.024 6.144-0.6144 8.8064 1.024l11.6736 7.168c2.6624 1.6384 4.5056 4.5056 4.7104 7.5776 0.4096 3.072-0.8192 6.144-3.072 8.3968-96.256 94.4128-223.4368 146.432-358.1952 146.432z m124.7232-149.7088l-39.1168 24.1664c-38.0928 23.552-64.7168 61.44-74.1376 104.8576 118.1696-2.6624 229.5808-47.104 317.2352-125.952-31.5392 9.4208-64.1024 14.1312-97.28 14.1312-36.4544 0-72.2944-5.7344-106.7008-17.2032z" fill="#1C1D21" p-id="6477"></path><path d="M793.8048 743.0144l-20.8896 3.072c-15.9744 2.2528-40.3456 2.2528-56.1152 0l-20.8896-3.072c-30.1056-4.5056-52.224-30.1056-52.224-60.6208v-48.9472c0-10.4448 7.7824-19.456 18.0224-20.8896l31.3344-4.7104c30.72-4.5056 70.0416-4.7104 100.7616-0.2048l34.2016 4.9152c10.4448 1.4336 18.2272 10.4448 18.2272 21.0944v48.9472c0 30.1056-22.3232 55.9104-52.4288 60.416z" fill="#FFECE9" p-id="6478"></path><path d="M744.8576 757.9648c-10.6496 0-21.0944-0.6144-29.696-1.8432l-20.8896-3.072c-34.816-5.12-61.0304-35.4304-61.0304-70.656v-48.9472c0-15.7696 11.264-28.8768 26.8288-31.1296l31.3344-4.7104c31.5392-4.7104 72.0896-4.7104 103.6288-0.2048l34.2016 4.9152c15.36 2.2528 26.8288 15.5648 26.8288 31.1296v48.9472c0 35.2256-26.2144 65.536-61.0304 70.656l-20.8896 3.072c-7.9872 1.2288-18.6368 1.8432-29.2864 1.8432z m48.9472-14.9504zM744.2432 614.4c-17.2032 0-34.6112 1.2288-49.5616 3.4816l-31.3344 4.7104c-5.3248 0.8192-9.4208 5.3248-9.4208 10.8544v48.9472c0 24.9856 18.6368 46.6944 43.4176 50.3808l20.8896 3.072c14.9504 2.2528 38.2976 2.2528 53.248 0l20.8896-3.072c24.7808-3.6864 43.4176-25.3952 43.4176-50.3808v-48.9472c0-5.3248-4.096-10.0352-9.4208-10.8544l-34.2016-4.9152c-14.5408-2.2528-31.1296-3.2768-47.9232-3.2768z" fill="#1C1D21" p-id="6479"></path><path d="M643.6864 636.5184c-1.8432 0-3.6864-0.4096-5.3248-1.4336l-64.9216-38.912c-4.9152-2.8672-6.3488-9.216-3.4816-14.1312 2.8672-4.9152 9.216-6.3488 14.1312-3.4816l64.9216 38.912c4.9152 2.8672 6.3488 9.216 3.4816 14.1312-1.8432 3.072-5.3248 4.9152-8.8064 4.9152zM846.2336 638.5664c-3.4816 0-6.9632-1.8432-8.8064-4.9152-2.8672-4.9152-1.2288-11.0592 3.4816-14.1312l68.1984-40.7552c4.9152-2.8672 11.0592-1.2288 14.1312 3.4816 2.8672 4.9152 1.2288 11.0592-3.4816 14.1312l-68.1984 40.7552c-1.8432 1.024-3.6864 1.4336-5.3248 1.4336z" fill="#1C1D21" p-id="6480"></path><path d="M829.44 123.2896c-4.096-1.4336-8.6016-2.4576-13.1072-2.4576-13.7216 0-25.8048 7.3728-32.5632 18.2272-2.6624 4.3008-8.6016 4.3008-11.264 0-6.7584-10.8544-18.6368-18.2272-32.5632-18.2272-13.7216 0-25.8048 7.3728-32.5632 18.2272-2.6624 4.3008-8.6016 4.3008-11.264 0-6.7584-10.8544-18.6368-18.2272-32.5632-18.2272s-25.8048 7.3728-32.5632 18.2272c-2.6624 4.3008-8.6016 4.3008-11.264 0-6.7584-10.8544-18.6368-18.2272-32.5632-18.2272s-25.8048 7.3728-32.5632 18.2272c-2.6624 4.3008-8.6016 4.3008-11.264 0-6.7584-10.8544-18.6368-18.2272-32.5632-18.2272-13.7216 0-25.8048 7.3728-32.5632 18.2272-2.6624 4.3008-8.6016 4.3008-11.264 0-6.7584-10.8544-18.6368-18.2272-32.5632-18.2272s-25.8048 7.3728-32.5632 18.2272c-2.6624 4.3008-8.6016 4.3008-11.264 0-6.7584-10.8544-18.6368-18.2272-32.5632-18.2272-21.0944 0-38.0928 16.9984-38.0928 38.0928h-1.2288c-48.5376 0-88.064 39.3216-88.064 88.064v99.328h41.3696v-56.7296c0-20.48 16.5888-36.864 36.864-36.864h48.7424c0 21.0944 16.9984 38.0928 38.0928 38.0928 7.3728 0 14.1312-2.048 20.0704-5.7344v61.2352h41.3696v-58.5728c4.5056 1.8432 9.4208 2.8672 14.7456 2.8672 13.7216 0 25.8048-7.3728 32.5632-18.2272 2.6624-4.3008 8.6016-4.3008 11.264 0 6.7584 10.8544 18.6368 18.2272 32.5632 18.2272 13.7216 0 25.8048-7.3728 32.5632-18.2272 2.6624-4.3008 8.6016-4.3008 11.264 0 6.7584 10.8544 18.6368 18.2272 32.5632 18.2272s25.8048-7.3728 32.5632-18.2272c2.6624-4.3008 8.6016-4.3008 11.264 0 6.7584 10.8544 18.6368 18.2272 32.5632 18.2272 13.7216 0 25.8048-7.3728 32.5632-18.2272 2.6624-4.3008 8.6016-4.3008 11.264 0 6.7584 10.8544 18.6368 18.2272 32.5632 18.2272 13.7216 0 25.8048-7.3728 32.5632-18.2272 2.6624-4.3008 8.6016-4.3008 11.264 0 6.7584 10.8544 18.6368 18.2272 32.5632 18.2272s25.8048-7.3728 32.5632-18.2272c2.6624-4.3008 8.6016-4.3008 11.264 0 6.7584 10.8544 18.6368 18.2272 32.5632 18.2272 10.4448 0 19.6608-4.096 26.624-10.8544-31.5392-60.416-75.1616-113.664-127.3856-156.4672z" fill="#AAADAD" p-id="6481"></path><path d="M458.9568 356.5568h-41.3696c-5.7344 0-10.24-4.5056-10.24-10.24v-46.2848c-3.2768 0.6144-6.5536 1.024-9.8304 1.024-23.1424 0-42.3936-16.384-47.104-38.0928h-39.7312c-14.7456 0-26.624 12.0832-26.624 26.624v56.7296c0 5.7344-4.5056 10.24-10.24 10.24h-41.3696c-5.7344 0-10.24-4.5056-10.24-10.24v-99.328c0-10.0352 1.4336-20.0704 4.5056-29.4912 1.6384-5.3248 7.3728-8.3968 12.9024-6.7584 5.3248 1.6384 8.3968 7.3728 6.7584 12.9024-2.4576 7.5776-3.4816 15.36-3.4816 23.3472v89.088h20.8896v-46.4896c0-26.0096 21.0944-47.104 47.104-47.104h48.7424c5.7344 0 10.24 4.5056 10.24 10.24 0 15.36 12.4928 27.8528 27.8528 27.8528 5.12 0 10.24-1.4336 14.5408-4.096 3.072-2.048 7.168-2.048 10.4448-0.2048 3.2768 1.8432 5.3248 5.3248 5.3248 9.0112v50.9952h20.8896v-48.3328c0-3.4816 1.6384-6.5536 4.5056-8.6016 2.8672-1.8432 6.5536-2.2528 9.6256-0.8192 3.4816 1.4336 6.9632 2.2528 10.6496 2.2528 9.8304 0 18.6368-4.9152 23.7568-13.312 3.072-5.12 8.3968-7.9872 14.336-7.9872s11.264 3.072 14.336 7.9872c5.12 8.3968 13.9264 13.312 23.7568 13.312s18.6368-4.9152 23.7568-13.312c3.072-5.12 8.3968-7.9872 14.336-7.9872s11.264 3.072 14.336 7.9872c5.12 8.3968 13.9264 13.312 23.7568 13.312s18.6368-4.9152 23.7568-13.312c3.072-5.12 8.3968-7.9872 14.336-7.9872 5.9392 0 11.264 3.072 14.336 7.9872 5.12 8.3968 13.9264 13.312 23.7568 13.312s18.6368-4.9152 23.7568-13.312c3.072-5.12 8.3968-7.9872 14.336-7.9872 5.9392 0 11.264 3.072 14.336 7.9872 5.12 8.3968 13.9264 13.312 23.7568 13.312s18.6368-4.9152 23.7568-13.312c3.072-5.12 8.3968-7.9872 14.336-7.9872 5.9392 0 11.264 3.072 14.336 7.9872 5.12 8.3968 13.9264 13.312 23.7568 13.312s18.6368-4.9152 23.7568-13.312c3.072-5.12 8.3968-7.9872 14.336-7.9872 5.9392 0 11.264 3.072 14.336 7.9872 5.12 8.3968 13.9264 13.312 23.7568 13.312 4.7104 0 9.4208-1.2288 13.5168-3.4816-30.3104-55.5008-70.4512-104.2432-119.3984-144.5888-2.6624-0.8192-5.3248-1.2288-8.192-1.2288-9.8304 0-18.6368 4.9152-23.7568 13.312-3.072 5.12-8.3968 7.9872-14.336 7.9872s-11.264-3.072-14.336-7.9872c-5.12-8.3968-13.9264-13.312-23.7568-13.312s-18.6368 4.9152-23.7568 13.312c-3.072 5.12-8.3968 7.9872-14.336 7.9872-5.9392 0-11.264-3.072-14.336-7.9872-5.12-8.3968-13.9264-13.312-23.7568-13.312s-18.6368 4.9152-23.7568 13.312c-3.072 5.12-8.3968 7.9872-14.336 7.9872s-11.264-3.072-14.336-7.9872c-5.12-8.3968-13.9264-13.312-23.7568-13.312s-18.6368 4.9152-23.7568 13.312c-3.072 5.12-8.3968 7.9872-14.336 7.9872s-11.264-3.072-14.336-7.9872c-5.12-8.3968-13.9264-13.312-23.7568-13.312s-18.6368 4.9152-23.7568 13.312c-3.072 5.12-8.3968 7.9872-14.336 7.9872s-11.264-3.072-14.336-7.9872c-5.12-8.3968-13.9264-13.312-23.7568-13.312s-18.6368 4.9152-23.7568 13.312c-3.072 5.12-8.3968 7.9872-14.336 7.9872-5.9392 0-11.264-3.072-14.336-7.9872-5.12-8.3968-13.9264-13.312-23.7568-13.312-15.36 0-27.8528 12.4928-27.8528 27.8528 0 5.7344-4.5056 10.24-10.24 10.24h-1.2288c-10.8544 0-21.2992 2.2528-31.3344 6.5536-5.12 2.2528-11.264 0-13.5168-5.3248-2.2528-5.12 0-11.264 5.3248-13.5168 10.0352-4.5056 20.48-7.168 31.3344-7.9872 4.5056-21.9136 23.9616-38.2976 47.3088-38.2976 15.1552 0 28.8768 6.7584 38.0928 18.6368 9.0112-11.6736 22.9376-18.6368 38.0928-18.6368s28.8768 6.7584 38.0928 18.6368c9.0112-11.6736 22.9376-18.6368 38.0928-18.6368s28.8768 6.7584 38.0928 18.6368c9.0112-11.6736 22.9376-18.6368 38.0928-18.6368 15.1552 0 28.8768 6.7584 38.0928 18.6368 9.0112-11.6736 22.9376-18.6368 38.0928-18.6368 15.1552 0 28.8768 6.7584 38.0928 18.6368 9.0112-11.6736 22.9376-18.6368 38.0928-18.6368s28.8768 6.7584 38.0928 18.6368c9.0112-11.6736 22.9376-18.6368 38.0928-18.6368 5.7344 0 11.4688 1.024 16.7936 3.072 1.024 0.4096 2.048 1.024 2.8672 1.6384 54.0672 44.2368 97.8944 97.8944 130.2528 159.744 2.048 4.096 1.2288 8.8064-1.8432 12.0832-9.0112 8.8064-21.0944 13.7216-33.792 13.7216-15.1552 0-28.8768-6.7584-38.0928-18.6368-9.0112 11.6736-22.9376 18.6368-38.0928 18.6368-15.1552 0-28.8768-6.7584-38.0928-18.6368-9.0112 11.6736-22.9376 18.6368-38.0928 18.6368s-28.8768-6.7584-38.0928-18.6368c-9.0112 11.6736-22.9376 18.6368-38.0928 18.6368-15.1552 0-28.8768-6.7584-38.0928-18.6368-9.0112 11.6736-22.9376 18.6368-38.0928 18.6368-15.1552 0-28.8768-6.7584-38.0928-18.6368-9.0112 11.6736-22.9376 18.6368-38.0928 18.6368s-28.8768-6.7584-38.0928-18.6368c-9.0112 11.6736-22.9376 18.6368-38.0928 18.6368-1.4336 0-3.072 0-4.5056-0.2048v45.4656c0 5.3248-4.5056 10.0352-10.24 10.0352z" fill="#1C1D21" p-id="6482"></path><path d="M252.3136 201.3184c-2.2528 0-4.5056-0.8192-6.5536-2.2528-4.3008-3.6864-4.9152-10.0352-1.4336-14.336 1.024-1.2288 1.8432-2.2528 2.8672-3.2768 3.8912-4.3008 10.24-4.5056 14.5408-0.8192 4.096 3.8912 4.5056 10.24 0.8192 14.5408-0.8192 0.8192-1.6384 1.8432-2.2528 2.6624-2.048 2.2528-4.9152 3.4816-7.9872 3.4816z" fill="#1C1D21" p-id="6483"></path><path d="M284.8768 226.304c-2.4576 0-4.7104-0.8192-6.7584-2.4576-4.3008-3.6864-4.7104-10.24-1.024-14.5408 10.8544-12.4928 26.624-19.6608 43.008-19.6608h42.1888c5.7344 0 10.24 4.5056 10.24 10.24s-4.5056 10.24-10.24 10.24h-42.1888c-10.6496 0-20.6848 4.5056-27.648 12.4928-1.8432 2.4576-4.7104 3.6864-7.5776 3.6864zM397.9264 210.3296h-5.7344c-5.7344 0-10.24-4.5056-10.24-10.24s4.5056-10.24 10.24-10.24h5.7344c5.7344 0 10.24 4.5056 10.24 10.24s-4.7104 10.24-10.24 10.24z" fill="#E0E0E0" p-id="6484"></path><path d="M475.3408 245.1456c-18.2272 0-33.1776-14.9504-33.1776-33.1776 0-5.7344 4.5056-10.24 10.24-10.24s10.24 4.5056 10.24 10.24c0 6.9632 5.7344 12.6976 12.6976 12.6976 6.9632 0 12.6976-5.7344 12.6976-12.6976 0-5.7344 4.5056-10.24 10.24-10.24H522.24c5.7344 0 10.24 4.5056 10.24 10.24s-4.5056 10.24-10.24 10.24h-15.1552c-4.3008 13.312-16.9984 22.9376-31.744 22.9376zM628.736 221.7984c-18.2272 0-33.1776-14.9504-33.1776-33.1776 0-5.7344 4.5056-10.24 10.24-10.24s10.24 4.5056 10.24 10.24c0 6.9632 5.7344 12.6976 12.6976 12.6976 6.9632 0 12.6976-5.7344 12.6976-12.6976 0-5.7344 4.5056-10.24 10.24-10.24H694.272c5.7344 0 10.24 4.5056 10.24 10.24s-4.5056 10.24-10.24 10.24h-33.9968c-4.3008 13.312-16.7936 22.9376-31.5392 22.9376zM838.0416 237.7728c-18.2272 0-33.1776-14.9504-33.1776-33.1776 0-5.7344 4.5056-10.24 10.24-10.24s10.24 4.5056 10.24 10.24c0 6.9632 5.7344 12.6976 12.6976 12.6976 6.9632 0 12.6976-5.7344 12.6976-12.6976 0-5.7344 4.5056-10.24 10.24-10.24h43.6224c5.7344 0 10.24 4.5056 10.24 10.24s-4.5056 10.24-10.24 10.24h-35.0208c-4.3008 13.312-16.7936 22.9376-31.5392 22.9376zM551.936 221.7984c-0.6144 0-1.4336 0-2.048-0.2048l-1.8432-0.6144c-0.6144-0.2048-1.2288-0.6144-1.8432-1.024s-1.024-0.8192-1.6384-1.2288-0.8192-1.024-1.2288-1.6384c-0.4096-0.6144-0.6144-1.2288-1.024-1.8432l-0.6144-1.8432c-0.2048-0.6144-0.2048-1.4336-0.2048-2.048 0-0.6144 0-1.4336 0.2048-2.048l0.6144-1.8432c0.2048-0.6144 0.6144-1.2288 1.024-1.8432 0.4096-0.6144 0.8192-1.024 1.2288-1.6384 0.4096-0.4096 1.024-0.8192 1.6384-1.2288 0.6144-0.4096 1.2288-0.6144 1.8432-1.024l1.8432-0.6144c1.2288-0.2048 2.6624-0.2048 4.096 0l1.8432 0.6144c0.6144 0.2048 1.2288 0.6144 1.8432 1.024 0.6144 0.4096 1.024 0.8192 1.6384 1.2288 0.4096 0.4096 0.8192 1.024 1.2288 1.6384 0.4096 0.6144 0.6144 1.2288 1.024 1.8432l0.6144 1.8432c0.2048 0.6144 0.2048 1.2288 0.2048 2.048 0 0.6144 0 1.4336-0.2048 2.048l-0.6144 1.8432c-0.2048 0.6144-0.6144 1.2288-1.024 1.8432-0.4096 0.6144-0.8192 1.024-1.2288 1.6384s-1.024 0.8192-1.6384 1.2288c-0.6144 0.4096-1.2288 0.6144-1.8432 1.024l-1.8432 0.6144c-0.6144 0-1.2288 0.2048-2.048 0.2048z" fill="#1C1D21" p-id="6485"></path><path d="M727.6544 198.656H724.992c-5.7344 0-10.24-4.5056-10.24-10.24s4.5056-10.24 10.24-10.24h2.6624c5.7344 0 10.24 4.5056 10.24 10.24s-4.7104 10.24-10.24 10.24z" fill="#1C1D21" p-id="6486"></path></svg>
