<svg t="1679822160787" class="icon" viewBox="0 0 1024 1024" version="1.1" xmlns="http://www.w3.org/2000/svg" p-id="16731" width="256" height="256"><path d="M512 953.81818174c244.02272695 0 441.81818174-197.79545479 441.81818174-441.81818174C953.81818174 267.97727305 756.02272695 70.18181826 512 70.18181826 267.97727305 70.18181826 70.18181826 267.97727305 70.18181826 512c0 244.02272695 197.79545479 441.81818174 441.81818174 441.81818174z m0-65.45454522a376.36363653 376.36363653 0 1 1 0-752.72727305 376.36363653 376.36363653 0 0 1 0 752.72727305z" p-id="16732"></path><path d="M365.62727305 677.19090869a32.72727305 32.72727305 0 1 0 47.29090869 45.24545478l157.90909131-164.86363652a40.90909131 40.90909131 0 0 0 11.33181826-28.30909042V348.36363653a32.72727305 32.72727305 0 1 0-65.4545461-1e-8v171.04090869l-151.07727216 157.78636348z" p-id="16733"></path></svg>