<svg t="1679837528423" class="icon" viewBox="0 0 1024 1024" version="1.1" xmlns="http://www.w3.org/2000/svg" p-id="3928" width="18" height="18"><path d="M904.744 335.211c-24.144-53.662-58.48-101.096-102.054-140.983-11.406-10.442-29.117-9.658-39.56 1.747-10.441 11.407-9.659 29.118 1.747 39.56 77.242 70.708 121.543 171.28 121.543 275.932 0 206.213-167.767 373.98-373.98 373.98S138.46 717.68 138.46 511.467c0-206.213 167.767-373.979 373.98-373.979 15.464 0 28-12.536 28-28s-12.536-28-28-28c-58.035 0-114.348 11.373-167.376 33.801-51.205 21.658-97.186 52.657-136.666 92.137-39.48 39.479-70.479 85.46-92.137 136.666C93.832 397.12 82.46 453.433 82.46 511.468s11.373 114.348 33.801 167.376c21.658 51.205 52.657 97.186 92.137 136.665 39.479 39.479 85.46 70.479 136.666 92.137 53.028 22.43 109.341 33.802 167.376 33.802s114.348-11.372 167.376-33.802c51.205-21.657 97.186-52.657 136.665-92.137s70.479-85.46 92.137-136.665c22.43-53.028 33.802-109.342 33.802-167.376 0.001-61.392-12.675-120.693-37.676-176.257z" p-id="3929"></path><path d="M604.332 148.853c35.209 8.893 68.896 22.897 100.128 41.623a27.864 27.864 0 0 0 14.372 3.99c9.515 0 18.792-4.852 24.041-13.606 7.951-13.263 3.646-30.46-9.616-38.413-35.929-21.542-74.691-37.655-115.212-47.889-14.988-3.788-30.217 5.297-34.004 20.291-3.787 14.992 5.298 30.216 20.291 34.004zM382.044 328.726v365.481c0 15.464 12.536 28 28 28s28-12.536 28-28V328.726c0-15.464-12.536-28-28-28s-28 12.536-28 28zM586.838 328.726v365.481c0 15.464 12.536 28 28 28s28-12.536 28-28V328.726c0-15.464-12.536-28-28-28s-28 12.536-28 28z" p-id="3930"></path></svg>